<svg xmlns="http://www.w3.org/2000/svg" width="788" height="776" viewBox="0 0 788 776">
<g>
<path d="M 436.50 749.05 C440.35,749.38 419.42,749.65 390.00,749.64 C360.58,749.64 339.88,749.38 344.00,749.07 C352.70,748.41 351.66,747.99 335.00,745.42 C258.12,733.58 185.35,696.03 130.41,639.86 C102.55,611.36 82.35,582.76 64.47,546.50 C50.74,518.63 41.94,493.58 35.59,464.29 C32.64,450.71 29.00,428.81 29.00,424.69 C29.00,423.07 28.58,422.14 28.00,422.50 C27.34,422.91 27.01,410.43 27.02,385.81 C27.02,365.29 27.41,349.10 27.87,349.82 C28.40,350.65 28.97,348.63 29.40,344.38 C32.22,316.92 42.04,279.15 54.21,249.00 C88.58,163.87 159.06,91.22 243.30,54.08 C275.58,39.85 304.95,31.53 343.00,25.83 C350.88,24.66 351.21,24.52 347.50,23.92 C345.30,23.57 364.65,23.28 390.50,23.28 C416.35,23.28 435.70,23.58 433.50,23.95 L 429.50 24.61 L 434.50 25.41 C483.27,33.19 517.57,43.79 554.50,62.48 C640.30,105.91 705.91,182.15 735.66,273.00 C742.83,294.91 749.45,325.56 752.21,349.68 C752.88,355.47 753.39,379.63 753.47,408.50 C753.54,435.45 753.35,450.08 753.05,441.00 C752.67,429.72 752.27,425.76 751.78,428.50 C751.38,430.70 750.11,438.28 748.96,445.34 C739.88,500.91 715.87,557.37 681.86,603.10 C625.80,678.49 540.85,730.35 449.50,744.96 C428.49,748.31 428.37,748.35 436.50,749.05 ZM 367.32 420.10 C372.37,420.43 387.08,420.51 400.00,420.27 L 423.50 419.85 L 428.75 414.18 L 434.00 408.50 L 434.00 344.28 L 440.15 343.64 C443.53,343.29 458.57,343.00 473.57,343.00 L 500.84 343.00 L 506.01 337.25 L 511.17 331.50 L 510.83 299.30 L 510.49 267.10 L 504.99 262.09 L 499.50 257.09 L 466.91 257.05 L 434.31 257.00 L 433.66 241.25 C433.30,232.59 432.99,217.40 432.98,207.50 L 432.95 189.50 L 427.13 184.32 L 421.31 179.14 L 357.57 180.32 L 352.91 184.68 L 348.25 189.04 L 346.78 257.00 L 314.14 257.04 L 281.50 257.08 L 275.79 262.29 L 270.09 267.50 L 269.64 331.30 L 280.14 343.00 L 306.82 343.01 C321.49,343.01 336.54,343.30 340.25,343.65 L 347.00 344.29 L 347.01 371.39 C347.01,400.04 347.83,408.95 350.80,412.93 C354.74,418.22 357.63,419.47 367.32,420.10 ZM 207.76 523.25 L 207.50 559.00 L 218.00 558.96 C235.85,558.88 248.09,557.51 252.94,555.03 C259.41,551.73 266.62,544.47 269.74,538.12 C272.17,533.18 272.50,531.35 272.50,523.00 C272.50,507.86 267.98,498.24 258.09,492.30 C250.86,487.96 242.19,486.19 224.22,485.38 C211.67,484.81 208.97,484.94 208.54,486.10 C208.26,486.87 207.91,503.59 207.76,523.25 ZM 325.00 484.49 L 325.00 559.00 L 332.39 559.00 C338.21,559.00 339.92,558.66 340.39,557.42 C340.73,556.55 341.00,547.46 341.00,537.22 C341.00,526.88 341.38,519.02 341.85,519.55 C342.32,520.07 344.84,525.90 347.44,532.50 C350.04,539.10 353.53,547.76 355.18,551.75 L 358.19 559.00 L 371.50 558.96 L 387.87 517.50 L 387.94 532.10 C387.97,540.14 388.29,549.47 388.64,552.85 L 389.28 559.00 L 404.00 559.00 L 404.00 485.00 L 386.87 485.00 L 384.07 491.25 C382.53,494.69 378.02,505.01 374.05,514.18 C373.76,514.85 373.47,515.50 373.20,516.13 C367.72,528.80 365.81,533.20 364.31,533.07 C363.44,532.99 362.70,531.37 361.47,528.95 C359.95,525.95 355.15,515.17 350.79,505.00 C346.44,494.83 342.57,486.21 342.19,485.84 C341.81,485.48 337.79,485.03 333.25,484.84 ZM 434.50 558.66 C444.94,562.12 459.89,557.03 467.02,547.58 C469.21,544.69 471.00,541.80 471.00,541.16 C471.00,540.37 468.35,540.01 462.75,540.02 C455.26,540.03 454.09,540.31 450.10,543.02 C445.16,546.36 443.39,546.61 438.62,544.61 C435.41,543.27 431.00,538.34 431.00,536.10 C431.00,535.34 437.35,535.00 451.64,535.00 L 472.28 535.00 L 471.60 527.25 C470.33,512.58 463.27,503.44 451.29,500.96 C440.88,498.79 428.36,501.52 422.17,507.30 C412.23,516.56 412.34,540.85 422.36,551.85 C424.82,554.54 428.78,556.77 434.50,558.66 ZM 500.50 559.38 C504.28,560.34 514.08,559.02 519.05,556.88 C524.27,554.64 535.43,543.78 534.71,541.64 C534.46,540.90 531.28,540.50 525.74,540.50 C517.96,540.50 516.91,540.73 514.50,543.00 C509.78,547.44 499.54,545.53 495.57,539.46 C494.62,538.01 494.14,536.53 494.50,536.16 C494.86,535.80 504.33,535.36 515.54,535.19 L 535.91 534.89 L 535.37 528.19 C534.42,516.59 532.56,511.67 527.42,507.14 C521.01,501.50 514.74,499.61 504.53,500.25 C491.99,501.03 484.71,505.83 481.00,515.74 C478.24,523.12 478.25,535.93 481.04,543.37 C484.16,551.73 490.33,556.80 500.50,559.38 ZM 558.47 557.94 C560.14,558.42 564.99,558.86 569.25,558.91 L 577.00 559.00 L 576.99 554.25 C576.96,546.04 576.35,545.00 571.57,545.00 C563.98,545.00 563.55,544.12 563.17,528.08 L 562.85 514.00 L 577.09 514.00 L 576.80 507.25 L 576.50 500.50 L 563.00 499.91 L 563.00 485.92 L 555.25 486.21 L 547.50 486.50 L 547.00 492.99 C546.58,498.49 546.20,499.53 544.50,499.83 C541.65,500.31 540.00,502.85 540.00,506.76 C540.00,510.81 541.54,514.00 543.50,514.00 C546.00,514.00 546.72,517.16 547.41,531.00 C547.78,538.42 548.34,545.96 548.65,547.74 C549.33,551.60 554.25,556.71 558.47,557.94 ZM 282.00 500.00 L 282.00 559.00 L 298.80 559.00 L 299.17 542.25 C299.66,520.46 300.48,518.74 311.75,515.97 L 316.00 514.92 L 316.00 507.93 C316.00,499.48 315.19,498.90 307.14,501.59 C299.05,504.29 299.00,504.29 299.00,502.68 C299.00,500.59 296.79,500.00 288.92,500.00 ZM 245.71 542.15 C242.92,543.57 238.93,544.41 233.30,544.76 L 225.00 545.28 L 225.00 499.00 L 230.46 499.00 C242.89,499.00 254.10,506.88 255.58,516.64 C256.54,522.99 254.76,533.12 252.01,536.98 C250.81,538.67 247.98,540.99 245.71,542.15 ZM 453.81 519.74 C453.52,521.26 452.10,521.54 443.32,521.78 C437.03,521.96 432.91,521.67 432.51,521.02 C432.16,520.45 433.21,518.63 434.86,516.99 C437.15,514.70 438.74,514.01 441.67,514.02 C447.02,514.05 454.25,517.46 453.81,519.74 ZM 517.50 520.04 C517.50,521.21 515.45,521.56 507.33,521.78 C495.54,522.11 493.97,521.20 498.86,516.84 C501.31,514.65 503.02,514.00 506.37,514.00 C511.09,514.00 517.50,517.48 517.50,520.04 Z" fill="rgb(18,123,203)"/>
<path d="M 0.00 388.00 L 0.00 0.00 L 394.00 0.00 L 788.00 0.00 L 788.00 388.00 L 788.00 776.00 L 394.00 776.00 L 0.00 776.00 L 0.00 388.00 ZM 436.50 749.05 C428.37,748.35 428.49,748.31 449.50,744.96 C540.85,730.35 625.80,678.49 681.86,603.10 C715.87,557.37 739.88,500.91 748.96,445.34 C750.11,438.28 751.38,430.70 751.78,428.50 C752.27,425.76 752.67,429.72 753.05,441.00 C753.35,450.08 753.54,435.45 753.47,408.50 C753.39,379.63 752.88,355.47 752.21,349.68 C749.45,325.56 742.83,294.91 735.66,273.00 C705.91,182.15 640.30,105.91 554.50,62.48 C517.57,43.79 483.27,33.19 434.50,25.41 L 429.50 24.61 L 433.50 23.95 C435.70,23.58 416.35,23.28 390.50,23.28 C364.65,23.28 345.30,23.57 347.50,23.92 C351.21,24.52 350.88,24.66 343.00,25.83 C304.95,31.53 275.58,39.85 243.30,54.08 C159.06,91.22 88.58,163.87 54.21,249.00 C42.04,279.15 32.22,316.92 29.40,344.38 C28.97,348.63 28.40,350.65 27.87,349.82 C27.41,349.10 27.02,365.29 27.02,385.81 C27.01,410.43 27.34,422.91 28.00,422.50 C28.58,422.14 29.00,423.07 29.00,424.69 C29.00,428.81 32.64,450.71 35.59,464.29 C41.94,493.58 50.74,518.63 64.47,546.50 C82.35,582.76 102.55,611.36 130.41,639.86 C185.35,696.03 258.12,733.58 335.00,745.42 C351.66,747.99 352.70,748.41 344.00,749.07 C339.88,749.38 360.58,749.64 390.00,749.64 C419.42,749.65 440.35,749.38 436.50,749.05 ZM 434.50 558.66 C428.78,556.77 424.82,554.54 422.36,551.85 C412.34,540.85 412.23,516.56 422.17,507.30 C428.36,501.52 440.88,498.79 451.29,500.96 C463.27,503.44 470.33,512.58 471.60,527.25 L 472.28 535.00 L 451.64 535.00 C437.35,535.00 431.00,535.34 431.00,536.10 C431.00,538.34 435.41,543.27 438.62,544.61 C443.39,546.61 445.16,546.36 450.10,543.02 C454.09,540.31 455.26,540.03 462.75,540.02 C468.35,540.01 471.00,540.37 471.00,541.16 C471.00,541.80 469.21,544.69 467.02,547.58 C459.89,557.03 444.94,562.12 434.50,558.66 ZM 453.81 519.74 C454.25,517.46 447.02,514.05 441.67,514.02 C438.74,514.01 437.15,514.70 434.86,516.99 C433.21,518.63 432.16,520.45 432.51,521.02 C432.91,521.67 437.03,521.96 443.32,521.78 C452.10,521.54 453.52,521.26 453.81,519.74 ZM 500.50 559.38 C490.33,556.80 484.16,551.73 481.04,543.37 C478.25,535.93 478.24,523.12 481.00,515.74 C484.71,505.83 491.99,501.03 504.53,500.25 C514.74,499.61 521.01,501.50 527.42,507.14 C532.56,511.67 534.42,516.59 535.37,528.19 L 535.91 534.89 L 515.54 535.19 C504.33,535.36 494.86,535.80 494.50,536.16 C494.14,536.53 494.62,538.01 495.57,539.46 C499.54,545.53 509.78,547.44 514.50,543.00 C516.91,540.73 517.96,540.50 525.74,540.50 C531.28,540.50 534.46,540.90 534.71,541.64 C535.43,543.78 524.27,554.64 519.05,556.88 C514.08,559.02 504.28,560.34 500.50,559.38 ZM 517.50 520.04 C517.50,517.48 511.09,514.00 506.37,514.00 C503.02,514.00 501.31,514.65 498.86,516.84 C493.97,521.20 495.54,522.11 507.33,521.78 C515.45,521.56 517.50,521.21 517.50,520.04 ZM 207.76 523.25 C207.91,503.59 208.26,486.87 208.54,486.10 C208.97,484.94 211.67,484.81 224.22,485.38 C242.19,486.19 250.86,487.96 258.09,492.30 C267.98,498.24 272.50,507.86 272.50,523.00 C272.50,531.35 272.17,533.18 269.74,538.12 C266.62,544.47 259.41,551.73 252.94,555.03 C248.09,557.51 235.85,558.88 218.00,558.96 L 207.50 559.00 L 207.76 523.25 ZM 245.71 542.15 C247.98,540.99 250.81,538.67 252.01,536.98 C254.76,533.12 256.54,522.99 255.58,516.64 C254.10,506.88 242.89,499.00 230.46,499.00 L 225.00 499.00 L 225.00 522.14 L 225.00 545.28 L 233.30 544.76 C238.93,544.41 242.92,543.57 245.71,542.15 ZM 282.00 529.50 L 282.00 500.00 L 288.92 500.00 C296.79,500.00 299.00,500.59 299.00,502.68 C299.00,504.29 299.05,504.29 307.14,501.59 C315.19,498.90 316.00,499.48 316.00,507.93 L 316.00 514.92 L 311.75 515.97 C300.48,518.74 299.66,520.46 299.17,542.25 L 298.80 559.00 L 290.40 559.00 L 282.00 559.00 L 282.00 529.50 ZM 325.00 521.74 L 325.00 484.49 L 333.25 484.84 C337.79,485.03 341.81,485.48 342.19,485.84 C342.57,486.21 346.44,494.83 350.79,505.00 C355.15,515.17 359.95,525.95 361.47,528.95 C364.91,535.74 364.50,536.22 374.05,514.18 C378.02,505.01 382.53,494.69 384.07,491.25 L 386.87 485.00 L 395.44 485.00 L 404.00 485.00 L 404.00 522.00 L 404.00 559.00 L 396.64 559.00 L 389.28 559.00 L 388.64 552.85 C388.29,549.47 387.97,540.14 387.94,532.10 L 387.87 517.50 L 379.69 538.23 L 371.50 558.96 L 364.84 558.98 L 358.19 559.00 L 355.18 551.75 C353.53,547.76 350.04,539.10 347.44,532.50 C344.84,525.90 342.32,520.07 341.85,519.55 C341.38,519.02 341.00,526.88 341.00,537.22 C341.00,547.46 340.73,556.55 340.39,557.42 C339.92,558.66 338.21,559.00 332.39,559.00 L 325.00 559.00 L 325.00 521.74 ZM 558.47 557.94 C554.25,556.71 549.33,551.60 548.65,547.74 C548.34,545.96 547.78,538.42 547.41,531.00 C546.72,517.16 546.00,514.00 543.50,514.00 C541.54,514.00 540.00,510.81 540.00,506.76 C540.00,502.85 541.65,500.31 544.50,499.83 C546.20,499.53 546.58,498.49 547.00,492.99 L 547.50 486.50 L 555.25 486.21 L 563.00 485.92 L 563.00 492.91 L 563.00 499.91 L 569.75 500.20 L 576.50 500.50 L 576.80 507.25 L 577.09 514.00 L 569.97 514.00 L 562.85 514.00 L 563.17 528.08 C563.55,544.12 563.98,545.00 571.57,545.00 C576.35,545.00 576.96,546.04 576.99,554.25 L 577.00 559.00 L 569.25 558.91 C564.99,558.86 560.14,558.42 558.47,557.94 ZM 367.32 420.10 C357.63,419.47 354.74,418.22 350.80,412.93 C347.83,408.95 347.01,400.04 347.01,371.39 L 347.00 344.29 L 340.25 343.65 C336.54,343.30 321.49,343.01 306.82,343.01 L 280.14 343.00 L 274.89 337.15 L 269.64 331.30 L 269.86 299.40 L 270.09 267.50 L 275.79 262.29 L 281.50 257.08 L 314.14 257.04 L 346.78 257.00 L 347.51 223.02 L 348.25 189.04 L 352.91 184.68 L 357.57 180.32 L 389.44 179.73 L 421.31 179.14 L 427.13 184.32 L 432.95 189.50 L 432.98 207.50 C432.99,217.40 433.30,232.59 433.66,241.25 L 434.31 257.00 L 466.91 257.05 L 499.50 257.09 L 504.99 262.09 L 510.49 267.10 L 510.83 299.30 L 511.17 331.50 L 506.01 337.25 L 500.84 343.00 L 473.57 343.00 C458.57,343.00 443.53,343.29 440.15,343.64 L 434.00 344.28 L 434.00 376.39 L 434.00 408.50 L 428.75 414.18 L 423.50 419.85 L 400.00 420.27 C387.08,420.51 372.37,420.43 367.32,420.10 Z" fill="rgb(251,253,254)"/>
</g>
</svg>